<?xml version="1.0" encoding="utf-8"?>
<!-- Svg Vector Icons : http://www.sfont.cn -->
<!DOCTYPE svg PUBLIC "-//W3C//DTD SVG 1.1//EN" "http://www.w3.org/Graphics/SVG/1.1/DTD/svg11.dtd">
<svg version="1.1" xmlns="http://www.w3.org/2000/svg" xmlns:xlink="http://www.w3.org/1999/xlink" x="0px" y="0px" viewBox="0 0 1000 1000" enable-background="new 0 0 1000 1000" xml:space="preserve">
<metadata> Svg Vector Icons : http://www.sfont.cn </metadata>
<g><path d="M382.3,242.2c-22.3-12.1-44.6-24.1-66.9-36.4c-37-20.1-74-40.2-111-60.4c-15-8.2-21.2-20.7-12.7-36.2c8.5-15.6,22.8-16.7,37.5-8.7c86.7,47.2,173.5,94.3,260,142.1c22.1,12.2,62.1,5,76.1-15.8c44.3-64.2,88.4-128.5,132.5-192.8c1.5-2.3,3.1-4.6,4.6-6.8C715,9.8,729.4,5.1,742.4,15.4c15,11.9,12.5,26,2.8,40.2c-18,26.2-35.9,52.5-53.7,78.6c-24.8,36.4-49.5,72.7-77.2,113.1c11.3,0,18.6,0,25.7,0c95.3,0,190.8,0,286.2,0c29.1,0,33.6,4.6,33.7,33.7c0.3,199.5,0.5,398.8,0.8,598.3c0,28.5-5.1,33.4-34.2,33.6c-7.6,0-15.3,0.8-22.8-0.2c-27.5-3.1-47.7-0.5-57.3,33.6c-8.7,30.6-41.3,46.3-70.7,43.2c-34-3.6-56.5-23.7-65.2-55.4c-5.3-19.2-14.2-21.8-31.6-21.7c-119.6,0.8-239.1,0.5-358.8,0.2c-13.8,0-21.8,1.2-25.8,18c-8.7,35.9-38.2,58.7-70.9,59.3c-33.9,0.6-63.3-21.5-73.2-58.8c-4.2-15.6-11.1-19.2-25.5-18.4c-18.6,1.1-37.3,0.5-56,0.2c-20.4-0.5-29.4-8.8-29.4-28.8c0.2-202.7,0.5-405.6,0.9-608.5c0-21,8.5-28,31.9-28c96.1-0.2,192.2,0,288.2,0c6.7,0,13.5,0,20.1,0C381.1,245.8,381.7,244.1,382.3,242.2z M913.6,866.1c0-192.2,0-382.3,0-573.3c-276.1,0-550.7,0-825.1,0c0,191.9,0,382.4,0,573.3C364.3,866.1,637.8,866.1,913.6,866.1z M250.7,914.4c-20,0-37.5,0-56.8,0c3.9,16.2,11.8,27.7,26.9,28.6C237.7,944.3,245.8,931.7,250.7,914.4z M752.7,914.2c5.7,17.3,13.5,30,30.5,28.8c15.3-1.1,22.4-13,27.1-28.8C790.4,914.2,772.9,914.2,752.7,914.2z"/><path d="M501.8,826.6c-110.5,0-221.2,0-331.7,0c-32.2,0-37.3-5.1-37.3-37.3c0.2-138.7,0.3-277.3,0.6-416.2c0-29.3,6-35.3,35.1-35.3c221.8,0,443.7,0,665.5,0c29.6,0,35.6,5.9,35.8,34.8c0.5,139.4,0.8,278.7,0.9,418.2c0,29.9-6.2,35.6-37,35.8C722.9,826.6,612.3,826.6,501.8,826.6z M820.8,777.6c0-131.9,0-261.1,0-390.2c-214,0-426.4,0-638.6,0c0,131.1,0,260.3,0,390.2C395.8,777.6,607.6,777.6,820.8,777.6z"/><path d="M504.7,708.4c-8.5,6-16.4,12.8-25.4,17.6c-29.6,15.6-59,14.2-86.2-4.8c-30-21-43.3-51.8-40.7-87.8c0.6-7.7,14.9-20,23.1-20.3c8-0.3,18.3,10.8,24.1,19.3c4.6,6.8,2.6,17.6,5.9,25.8c6.2,15.6,17.6,30.5,34.8,26.8c12.7-2.6,24.1-15.5,33.6-26c4.6-5.3,3.9-15.6,5.1-23.7c2.2-15.3,11-24.6,26-24.3c13.6,0.3,22.4,8.7,24.3,23.5c1.1,9.4,1.4,21.2,7,27.4c9,10.1,21.7,22.1,33.3,22.6c10.4,0.3,23.1-12.4,31.3-22.3c5.4-6.5,5.1-18.1,6.8-27.5c2.8-15,11.3-24.1,26.8-23.1c15.3,1.2,23.4,11.1,22.8,26.8c-1.5,39.5-17,71.5-53.5,89.1c-34,16.4-65.9,9.4-93.8-15.9C508.3,710.7,506.6,709.8,504.7,708.4z"/><path d="M777.1,560.8c0.5,23.4-18.6,36.2-36.2,26.2c-47.2-26.9-93.6-55.3-139.9-83.7c-12.2-7.6-14.9-20-7.7-32.5c7.3-12.8,20.1-16.2,32-9.4c47.7,27.5,94.9,55.9,141.8,84.8C772.5,549.6,775.1,557.8,777.1,560.8z"/><path d="M374.3,470.8c4.3,4.3,15.5,10.4,16.7,17.8c1.4,8.8-3.2,24.1-10.1,27.5c-41,21-83.1,39.9-125.4,58.7c-12.8,5.7-26.9,1.4-30.2-12.5c-2.2-9.1,1.7-26.3,8.2-29.7c42.3-21.7,85.9-40.4,129.1-60C364.5,471.8,366.7,471.9,374.3,470.8z"/></g>
</svg>