<?xml version="1.0" encoding="utf-8"?>
<!-- Svg Vector Icons : http://www.sfont.cn -->
<!DOCTYPE svg PUBLIC "-//W3C//DTD SVG 1.1//EN" "http://www.w3.org/Graphics/SVG/1.1/DTD/svg11.dtd">
<svg version="1.1" xmlns="http://www.w3.org/2000/svg" xmlns:xlink="http://www.w3.org/1999/xlink" x="0px" y="0px" viewBox="0 0 1000 1000" enable-background="new 0 0 1000 1000" xml:space="preserve">
<metadata> Svg Vector Icons : http://www.sfont.cn </metadata>
<g><g transform="translate(0.000000,498.000000) scale(0.100000,-0.100000)"><path d="M4695.9,4881.4c-973.4-53.3-1927.1-416.6-2734.6-1040.5c-209.3-163.9-623.9-574.6-789.8-783.9c-304.1-385-612.1-928-776-1372.2C54,764.7,6.6-325.1,263.3-1292.6c163.9-612.1,473.9-1228.1,884.5-1759.2c167.8-217.2,596.3-647.6,813.5-813.5c858.9-665.4,1784.9-1001,2898.5-1052.4l240.9-11.9v1619v1619h-543h-543v681.2v681.2h543h543v489.6c0,268.5,9.9,564.7,21.7,655.5c82.9,671.3,416.6,1192.6,914.1,1431.5c274.5,130.3,304.1,134.3,1084,142.2l704.9,7.9v-679.2v-681.2l-389-9.9c-337.6-7.9-406.7-13.8-513.3-53.3c-165.8-57.3-298.1-179.7-373.2-339.6c-57.3-122.4-57.3-128.3-63.2-544.9l-7.9-418.6h673.3c525.2,0,673.3-5.9,673.3-23.7c0-13.8-59.2-321.8-130.3-683.1l-132.3-655.5h-539h-541V-3194v-1500.6l45.4,11.8c152,47.4,531.1,209.3,724.6,310c1441.3,750.3,2402.9,2124.5,2616.1,3737.6c41.5,313.9,41.5,930,0,1243.9c-118.5,898.4-452.2,1692.1-1014.9,2418.7c-165.8,215.2-596.3,645.6-811.5,811.5C7061.2,4599.1,5935.8,4948.6,4695.9,4881.4z"/></g></g>
</svg>