<?xml version="1.0" encoding="utf-8"?>
<!-- Svg Vector Icons : http://www.sfont.cn -->
<!DOCTYPE svg PUBLIC "-//W3C//DTD SVG 1.1//EN" "http://www.w3.org/Graphics/SVG/1.1/DTD/svg11.dtd">
<svg version="1.1" xmlns="http://www.w3.org/2000/svg" xmlns:xlink="http://www.w3.org/1999/xlink" x="0px" y="0px" viewBox="0 0 1000 1000" enable-background="new 0 0 1000 1000" xml:space="preserve">
<metadata> Svg Vector Icons : http://www.sfont.cn </metadata>
<g><g transform="translate(0.000000,442.000000) scale(0.100000,-0.100000)"><path d="M2467.8,4286.2c-220.5-37.9-587.9-155.9-786.1-256.1C868.8,3624.8,283.2,2832.1,138.4,1939.1c-51.2-316.2-51.2-4716.6,0-5032.8c95.8-587.9,369.7-1117.9,801.7-1547.7c334-336.3,668.1-543.4,1113.5-692.6c396.4-131.4,527.8-142.5,1855-142.5h1184.7v1815v1814.9h-612.4h-612.4v779.4v779.4h612.4h612.4V211c0,273.9,11.1,601.3,22.3,728.2c86.9,857.4,516.7,1498.7,1171.4,1748.1c271.7,102.4,427.6,118,1207,120.3H8211v-777.2v-777.2l-461-8.9c-409.7-8.9-476.5-15.6-587.9-57.9c-236.1-93.5-367.5-231.6-445.4-472.1c-40.1-120.3-51.2-213.8-60.1-572.3l-8.9-429.8h777.2h779.4l-155.9-779.4l-155.9-779.4h-619.1h-621.3v-1817.2v-1819.4l418.7,13.3c300.6,8.9,469.9,24.5,605.7,55.7c554.5,131.4,995.4,374.1,1391.8,772.7c396.4,394.2,632.5,819.5,775,1391.8c46.8,184.8,46.8,233.8,53.5,2565.4c8.9,2641.1,8.9,2618.8-135.9,3057.6c-151.4,447.6-358.5,781.7-690.3,1113.5c-434.3,434.2-962,705.9-1549.9,801.7C7220,4335.2,2759.5,4335.2,2467.8,4286.2z"/></g></g>
</svg>