<?xml version="1.0" encoding="utf-8"?>
<!-- Svg Vector Icons : http://www.sfont.cn -->
<!DOCTYPE svg PUBLIC "-//W3C//DTD SVG 1.1//EN" "http://www.w3.org/Graphics/SVG/1.1/DTD/svg11.dtd">
<svg version="1.1" xmlns="http://www.w3.org/2000/svg" xmlns:xlink="http://www.w3.org/1999/xlink" x="0px" y="0px" viewBox="0 0 1000 1000" enable-background="new 0 0 1000 1000" xml:space="preserve">
<metadata> Svg Vector Icons : http://www.sfont.cn </metadata>
<g><g><path d="M881.1,10H118.9C59,10,10,59,10,118.9v762.2C10,941.1,59,990,118.9,990H500V608.9H391.1V474.1H500V362.5C500,244.7,566,162,705,162l98.2,0.1v141.8H738c-54.1,0-74.7,40.6-74.7,78.3v92h139.8l-30.9,134.7H663.3V990h217.8C941,990,990,941.1,990,881.1V118.9C990,59,941,10,881.1,10L881.1,10z"/></g></g>
</svg>