<?xml version="1.0" encoding="utf-8"?>
<!-- Svg Vector Icons : http://www.sfont.cn -->
<!DOCTYPE svg PUBLIC "-//W3C//DTD SVG 1.1//EN" "http://www.w3.org/Graphics/SVG/1.1/DTD/svg11.dtd">
<svg version="1.1" xmlns="http://www.w3.org/2000/svg" xmlns:xlink="http://www.w3.org/1999/xlink" x="0px" y="0px" viewBox="0 0 1000 1000" enable-background="new 0 0 1000 1000" xml:space="preserve">
<metadata> Svg Vector Icons : http://www.sfont.cn </metadata>
<g><g transform="translate(0.000000,512.000000) scale(0.100000,-0.100000)"><path d="M999.4,5009.3c-395.1-57.5-736.4-352.9-857.3-738.4L100,4136.7V118.8V-3899l42.2-134.2c103.6-327.9,377.8-602.2,705.7-705.8l134.2-42.2H5000h4017.8l134.2,42.2c327.9,103.5,602.2,377.8,705.8,705.8L9900-3899V118.8v4017.8l-42.2,134.2c-101.6,322.2-370.1,594.5-694.2,705.7l-126.6,42.2l-3969.9,1.9C2882.7,5022.7,1053.2,5016.9,999.4,5009.3z M3076.4,2976.4c249.3-122.7,393.2-356.7,395.1-642.5c0-218.6-53.7-349-205.2-500.5c-211-211-467.9-260.8-757.5-149.6c-178.4,69-289.6,174.5-372.1,349c-53.7,113.2-59.5,147.7-59.5,301.1c-1.9,149.6,5.8,187.9,53.7,291.5c57.5,124.7,201.4,281.9,314.5,339.4C2644.9,3068.4,2880.8,3072.3,3076.4,2976.4z M6984.9,1135.3c540.8-143.8,795.9-473.7,918.6-1187.1c26.8-155.3,30.7-372,30.7-1463.3v-1281.1h-607.9h-609.9l-5.8,1089.3c-1.9,604.1-13.4,1154.5-24.9,1238.9c-57.5,433.4-249.3,606-648.2,581.1c-281.9-17.3-439.2-103.6-544.6-295.3c-109.3-203.3-113.2-243.6-128.5-1453.7c-9.6-611.8-15.3-1127.7-17.3-1144.9c-1.9-32.6-44.1-34.5-594.5-34.5H4160l-13.4,272.3c-15.3,304.9-5.8,3611.2,9.6,3626.6c5.8,5.8,266.6,13.4,581.1,17.3l569.6,5.7V834.2c0-170.7,7.7-274.2,19.2-274.2c11.5,0,19.2,11.5,19.2,24.9c0,28.8,197.5,260.8,278.1,326c149.6,120.8,383.6,224.4,592.6,262.7C6380.8,1202.4,6810.4,1181.3,6984.9,1135.3z M3116.7,1083.5L3389,1072V-782.5c0-1020.3-5.8-1894.8-11.5-1944.7l-13.4-88.2h-590.7h-592.6v1956.2v1956.1h331.8C2692.9,1096.9,2965.2,1091.2,3116.7,1083.5z"/></g></g>
</svg>