<?xml version="1.0" encoding="utf-8"?>
<!-- Svg Vector Icons : http://www.sfont.cn -->
<!DOCTYPE svg PUBLIC "-//W3C//DTD SVG 1.1//EN" "http://www.w3.org/Graphics/SVG/1.1/DTD/svg11.dtd">
<svg version="1.1" xmlns="http://www.w3.org/2000/svg" xmlns:xlink="http://www.w3.org/1999/xlink" x="0px" y="0px" viewBox="0 0 1000 1000" enable-background="new 0 0 1000 1000" xml:space="preserve">
<metadata> Svg Vector Icons : http://www.sfont.cn </metadata>
<g><g transform="translate(0.000000,448.000000) scale(0.100000,-0.100000)"><path d="M4565.6,4368.4c-1146.8-99.8-2222-601.6-3038.5-1418.2C779.6,2202.7,308.6,1263.3,142.2,195.8c-56.3-355.8-56.3-1072.6,0-1428.4c217.6-1395.1,967.6-2580.3,2124.7-3358.5c709.1-478.7,1477-742.4,2373-819.2C6019.6-5528,7455.7-4993,8461.7-3984.4c1658.8,1656.2,1912.2,4254.5,606.7,6194.8c-563.2,837.1-1323.4,1454-2255.2,1825.2C6116.9,4314.6,5305.4,4434.9,4565.6,4368.4z M3255,2090.1c153.6-69.1,225.3-138.2,296.9-291.8c166.4-350.7-10.2-760.3-376.3-867.8c-74.2-23-153.6-41-176.6-41c-23,0-102.4,17.9-176.6,41c-542.7,161.3-604.1,913.9-92.1,1151.9C2894.1,2159.2,3096.3,2161.8,3255,2090.1z M3536.6-1401.5v-1779.1H2999h-537.6v1779.1V377.6H2999h537.6V-1401.5z M5302.9,119v-258.5L5433.4,3.8c245.8,268.8,619.5,394.2,1085.4,366.1c650.2-41,947.1-302.1,1064.9-944.6c12.8-74.2,30.7-691.2,41-1369.5l15.4-1236.4h-555.5h-552.9v1108.4c0,1141.7-7.7,1241.5-107.5,1382.3c-84.5,117.7-186.9,156.1-430.1,158.7c-263.7,0-424.9-53.8-535-179.2c-133.1-153.6-138.2-194.6-148.5-1374.6l-12.8-1095.6h-535h-535v1761.2c0,970.2,7.7,1771.4,17.9,1779.1c7.7,10.3,250.9,17.9,537.6,17.9h519.6V119z"/></g></g>
</svg>