<?xml version="1.0" encoding="utf-8"?>
<!-- Svg Vector Icons : http://www.sfont.cn -->
<!DOCTYPE svg PUBLIC "-//W3C//DTD SVG 1.1//EN" "http://www.w3.org/Graphics/SVG/1.1/DTD/svg11.dtd">
<svg version="1.1" xmlns="http://www.w3.org/2000/svg" xmlns:xlink="http://www.w3.org/1999/xlink" x="0px" y="0px" viewBox="0 0 1000 1000" enable-background="new 0 0 1000 1000" xml:space="preserve">
<metadata> Svg Vector Icons : http://www.sfont.cn </metadata>
<g><g><path d="M440 190l-1.5.5-.556.306-1.944.722-1 .25-1 .222-2 .389-1 .222-2 .306-1 .055-2 .028h-27l-2-.028-1-.055-2-.306-2-.389-1-.139-2-.083h-19l-2-.028-1-.055-2-.306-1-.222-2-.306-1-.055-2-.028H237l-2-.083-2-.306-1-.222-2-.306-1-.055-2-.028h-31l-2-.083-1-.139-2-.389-2-.306-1-.055-2-.028h-13l-2-.083-2-.306-1-.222-2-.306-1-.055-2-.028H93l-2 .028-1 .055-2 .306-1 .222-2 .306-1 .055-1 .028h-2l-2 .028-1 .055-2 .306-1 .222-2 .306-1 .055-2 .028-2 .028-1 .055-2 .306-1 .222-1 .195-2 .388-1 .195-1 .222-2 .306-1 .055-2 .111-1 .139-2 .417-1 .222-1 .278-1 .222-1 .25-2 .333-1 .112-2 .361-1 .277-2 .612-1 .305-2 .528-2 .555-2 .695-1 .417-2 .805-2 .778-1 .417-1 .388-1 .445-1 .417-2 1-1 .583-2 1.167-1 .583-2 1.305-1 .723-2 1.666-1 .945L9.028 211l-1.778 2-.778 1-.61 1-.584 1-.89 2-.694 2-.277 1-.223 1-.388 2-.417 2-.306 2-.055 1-.056 2-.055 1-.306 2-.222 1-.306 2-.055 1L1 240v12l.028 2 .055 1 .306 2 .222 1 .306 2 .055 1L2 263v9l.028 1 .055 1 .306 2 .222 1 .306 2 .055 1-.055 2-.223 2-.083 1v1l.083 1 .223 2L3 291v7l.028 2 .055 1 .306 2 .222 1 .306 2 .055 1L4 308v54l.083 2 .306 2 .222 1 .306 2L5 371v28l.083 2 .14 1 .388 2 .306 2 .055 1L6 408v9l.028 2 .055 1 .306 2 .222 1 .306 2 .055 2-.055 1-.223 2-.083 1v1l.083 1 .223 2 .055 1L7 438v2l.028 2 .055 1 .306 2 .222 1 .306 2 .055 1L8 451v2l.028 1 .055 1 .306 2 .222 1 .306 2 .055 1L9 462v11l.028 2 .055 1 .306 2 .222 1 .306 2 .055 1 .028 2 .028 1 .055 1 .306 2 .222 1 .306 2 .055 1 .028 2v10l.028 1 .055 1 .306 2 .222 1 .306 2 .055 1 .028 2 .028 1 .055 1 .306 2 .222 1 .306 2 .055 1 .028 2v8l.028 1 .055 1 .306 2 .222 1 .306 2 .055 1 .028 1 .028 2 .055 1 .306 2 .222 1 .306 2 .055 1 .028 1v10l.028 1 .055 1 .306 2 .222 1 .306 2 .055 1 .028 2 .028 1 .055 1 .306 2 .222 1 .306 2 .055 1 .028 2v4l.028 2 .055 1 .306 2 .222 1 .306 2 .055 1 .028 2v5l.028 2 .055 1 .306 2 .222 1 .306 2 .055 1 .028 2v4l.028 2 .055 1 .306 2 .222 1 .306 2 .055 1 .028 2v12l.028 2 .055 1 .306 2 .222 1 .306 2 .055 1 .028 2v24l-.028 2-.055 1-.306 2-.222 1-.306 2-.055 1-.028 1v10l-.028 2-.055 1-.306 2-.222 1-.306 2-.055 1-.028 2v3l-.083 2-.306 2-.222 1-.306 2-.055 1-.028 2v4l-.028 2-.055 1-.306 2-.222 1-.306 2-.055 1-.028 2v3l-.083 2-.306 2-.222 1-.306 2-.055 1-.028 2-.083 2-.25 1.972-.14.945-.138.861-.083.833-.112.778-.138 1.694-.028.945L15 757v9l-.028 1-.055 1-.306 2-.222 1-.306 2-.055 1-.028 2v2l-.028 1-.055 1-.306 2-.222 1-.306 2-.055 1-.028 2v19l-.028 2-.055 1-.306 2-.389 2-.139 1-.083 2v23l.028 1 .055 1 .306 2 .222 1 .306 2 .055 1 .028 2v6l.028 2 .055 1 .306 2 .222 1 .195 1 .388 2 .195 1 .222 1 .195 1 .388 2 .195 1 .25 1 .222 1 .583 2 .417 1 .389 1 .528 1 .472 1 1.222 2 1.611 1.917.945.861.972.805 2 1.334 2 1.027 1 .417 1 .445 2 .722 1 .25 2 .416 2 .417 2 .306 1 .055 2 .028h1l2-.028 1-.055 2-.306 1-.222 2-.306 1-.055 2-.056 2-.194 2-.417 1-.222 1-.278 1-.222 1-.25 2-.333 1-.112 2-.333 1-.25 2-.5 1-.222 1-.25 2-.333 1-.112 2-.361 2-.583 2-.583 1-.195 1-.139 2-.111 1-.055 1-.139 2-.389 1-.167 1-.139 2-.083h3l2 .083 1 .139 1 .167 2 .417 2 .416 1 .25 2 .806 2 1.194 1.917 1.611L111.5 889l.556 1 .472 1 .611 2 .222 1 .278 1 .222 1 .5 2 .25 1 .195 1 .388 2 .195 1 .222 1 .195 1 .388 2 .195 1 .222 1 .333 2 .112 1 .333 2 .222 1 .333 2 .112 1 .333 2 .222 1 .195 1 .388 2 .195 1 .222 1 .333 2 .112 1 .333 2 .25 1 .222 1 .278 1 .472 2 .195 1 .416 2 .25 1 .361 1 .778 2 .778 2 .444 1 .417 1 .972 2 .556 1 .444 1 .556 1 1 2 .472 1 1.139 2 1.222 2 1.195 2 .583 1 .639 1 1.361 2 .75 1 1.5 2 .75 1 1.694 2 1.917 2 1 1 1 1 1 1 2 1.917 2 1.666 1 .723 2 1.305 1 .583 2 1.167 1 .583 2 1 2 .862 1 .361 1 .389 1 .277 1 .306 2 .472 1 .195 2 .388 1 .195 1 .222 2 .306 1 .055 2 .028h4l2-.028 1-.055 2-.306 1-.222 1-.195 2-.388 1-.195 1-.222 2-.389 1-.222 1-.25 2-.695 1-.389 2-.611 1-.277 2-.834 2-1.166 1-.723 2-1.472.972-.75 1.806-1.694 1.583-1.917 1.5-2 .75-1 1.361-2 .639-1 1.139-2 .472-1 .556-1 .444-1 .528-1 .417-1 .444-1 .778-2 .805-2 .417-1 .778-2 .417-1 .75-2 .277-1 .611-2 .389-1 .723-2 .583-2 .25-1 .305-1 .612-2 .305-1 .25-1 .528-2 .305-1 .612-2 .305-1 .528-2 .25-1 .611-2 .667-2 1.333-4 1-3 .667-2 .722-2 .417-1 .805-2 .778-2 .444-1 .417-1 .528-1 1-2 .472-1 1.139-2 .639-1 1.305-2 1.361-2 .723-1 1.666-2 .945-1 1.972-1.917 2-1.666 2-1.389 1-.611 2-1 2-.806 2-.778 1-.361 2-.472 2-.417 1-.277 2-.612 1-.277 2-.334 1-.055 2-.028 2-.028 1-.055 2-.306 1-.222 2-.306 1-.055 2-.028h23l2 .028 1 .055 2 .306 1 .222 2 .306 1 .055 2 .028h17l2 .028 1 .055 2 .306 1 .222 2 .306 1 .055 2 .028h39l2-.028 1-.055 2-.306 1-.222 2-.306 1-.055 2-.028h32l2-.028 1-.055 2-.306 1-.222 2-.306 1-.055 2-.028h4l2-.028 1-.055 2-.306 1-.222 2-.306 1-.055 2-.028h14l2-.028 1-.055 2-.306 1-.222 2-.306 2-.083h3l2-.028 1-.055 2-.306 1-.222 2-.306 1-.055 1-.028h13l2-.028 1-.055 2-.306 1-.222 2-.306 1-.055 2-.028h2l1-.028 1-.055 2-.306 1-.222 2-.306 1-.055 2-.028h8l1-.028 1-.055 2-.306 1-.222 2-.306 1-.055 2-.028h10l2-.028 1-.055 2-.306 1-.222 2-.306 1-.055 2-.028h5l2-.083 1-.139 2-.389 2-.222 1 .055 2 .167h1l1-.083 2-.223 2-.083 1-.028 1-.055 2-.306 1-.222 2-.306 1-.055 1-.028h2l2-.028 1-.055 2-.306 1-.222 2-.306 1-.055 1-.028h10l1-.028 1-.055 2-.306 1-.222 2-.306 1-.055 2-.028h10l1-.028 1-.055 2-.306 2-.389 1-.139 2-.083h7l2 .028 1 .055 2 .306 1 .222 2 .306 1 .055 2 .028h4l2 .028 1 .055 2 .306 1 .222 2 .306 1 .055 2 .056 1 .055 2 .306 1 .222 1 .195 2 .388 2 .417 1 .195 2 .416 1 .25 2 .722 1 .417 1 .361 2 .722 1 .389 2 .973 2 1.138 2 1.25 1 .723 1 .694 1.917 1.5.861.778.805.722.723.778.694.75.694.833 1.5 1.806.806.972 1.611 2 1.528 2 .694 1 .723 1 .611 1 .639 1 .583 1 1.222 2 .583 1 1.195 2 1.222 2 .556 1 .583 1 1.028 2 .444 1 .556 1 .472 1 .583 1 .556 1 1.222 2 1.139 2 .5 1 1.139 2 1.222 2 1.195 2 .583 1 .639 1 .639 1 1.333 2 1.389 2 .75 1 .722 1 .778 1 .75 1 1.694 2 1.917 2 1 1 2 1.917 2 1.694 1 .75 1 .778 1 .722 1 .778 1 .722 1 .778 1 .722 2 1.5 1 .778 2 1.417 2 1.25 1 .583 2 1.278 2 1.305 1 .639 2 1.139 1 .5 2 1.139 2 1.222 1 .556 1 .583 2 1.028 1 .444 1 .556 1 .444 1 .556 2 .972 1 .417 1 .444 2 .778 2 .805 1 .417 2 .695 2 .555 1 .278 1 .222 1 .25 2 .306 1 .027 1-.027 2-.306 1-.25 1-.222 2-.528 2-.639 1-.361 1-.417 2-.833 1-.417 2-1.027 2-1.334 2-1.583 1.972-1.611 1.806-1.611.833-.861.778-.945 1.667-1.972.888-1 1.639-2 .723-1 1.361-2 1.305-2 .639-1 .583-1 1.195-2 1.222-2 .556-1 .583-1 1.028-2 .444-1 .556-1 .444-1 .556-1 .444-1 .556-1 .972-2 .417-1 .889-2 .472-1 .944-2 .472-1 .889-2 .417-1 .972-2 .556-1 .444-1 .556-1 .444-1 1-2 .528-1 .889-2 .417-1 1-2 .583-1 1.111-2 .5-1 1.139-2 .639-1 .639-1 1.333-2 1.333-2 .667-1 1.417-2 1.666-2 1.917-2 1-1 2-2 1-.972 1-.945 2-1.666 1-.723 2-1.305 2-1.139 1-.5 2-1.139 2-1.222 2-1.139 1-.472 1-.528 1-.417 1-.444 2-.778 2-.778 1-.389 1-.277 2-.556 1-.305 1-.306 2-.583 1-.195 1-.139 2-.083h1l2-.083 2-.306 1-.222 2-.306 1-.055 2-.028h21l2-.028 1-.055 2-.306 1-.222 2-.306 1-.055 2-.028h2l1-.028 1-.055 2-.306 1-.25 2-.5 1-.25 1-.305 2-.695 2-.889 1.972-1.194.945-.778.861-.833 1.528-1.917 1.277-2 1-2 .806-2 .778-2 .389-1 .277-1 .556-2 .305-1 .612-2 .277-1 .361-2 .112-1 .333-2 .222-1 .195-1 .388-2 .195-1 .222-1 .306-2 .055-1 .028-2v-2l.028-1 .055-1 .306-2 .222-1 .306-2 .055-1 .028-2 .028-1 .055-1 .306-2 .222-1 .306-2 .055-1 .028-1v-76l-.028-2-.055-1-.306-2-.222-1-.306-2-.055-1-.028-2V462l.083-2 .306-2 .222-1 .306-2 .055-1 .028-2v-61l.028-2 .055-1 .306-2 .222-1 .306-2 .083-2v-13l.028-2 .055-1 .306-2 .389-2 .139-1 .083-2v-23l.028-2 .055-1 .306-2 .222-1 .306-2 .055-1 .028-2v-9l.028-1 .055-1 .306-2 .222-1 .306-2 .055-1 .028-2v-5l.028-2 .055-1 .306-2 .222-1 .306-2 .055-1 .056-2 .194-2 .389-2 .306-2 .055-1 .028-1v-3l.028-2 .055-1 .306-2 .222-1 .306-2 .055-1 .028-1v-2l.028-2 .055-1 .306-2 .222-1 .306-2 .055-1 .028-2v-20l-.028-1-.055-1-.306-2-.389-2-.139-1-.166-2-.306-2-.389-2-.166-1-.112-1-.361-2-.583-2-.333-1-.667-2-.667-2-.75-2-.472-1-1.139-2-1.305-2-.667-1-1.417-1.917-.805-.861-1.806-1.583-1.972-1.472-1-.723-2-1.166-1-.445-1-.444-2-.778-2-.778-1-.389-1-.277-2-.556-1-.305-2-.612-1-.277-2-.361-1-.112-2-.333-1-.222-1-.195-2-.388-1-.195-1-.222-2-.306-1-.055-2-.028-2-.028-1-.055-2-.306-1-.222-2-.306-1-.055-2-.056-2-.194-2-.389-2-.306-1-.055-2-.028h-51l-2 .028-1 .055-2 .306-1 .222-2 .306-2 .083h-11l-1 .028-1 .055-2 .306-2 .389-1 .139-2 .083h-13l-2 .028-1 .055-2 .306-1 .222-2 .306-1 .055-2 .028h-5l-2 .028-1 .055-2 .306-1 .222-2 .306-1 .055-2 .028h-23l-2 .028-1 .055-2 .306-1 .222-2 .306-2 .083H657l-2 .083-2 .306-1 .222-2 .306-1 .055-2 .028h-11l-2 .028-1 .055-2 .306-1 .222-2 .306-1 .055-2 .028h-3l-2 .028-1 .055-2 .306-1 .222-2 .306-1 .055-2 .028h-41l-2-.028-1-.055-2-.306-1-.25-1-.222-1-.278-2-.5-1-.222-1-.278-.944-.222-1.556-.389-1.5-.25.25-2.056.25-1 1-1.861 1.583-1.694 1.917-1.528 1-.722 1-.75 2-1.389 1-.667 1-.666 2-1.278 1-.583 2-1.195 2-1.222 2-1.139 1-.5 2-1.139 2-1.222 2-1.139 1-.5 2-1.139 1-.639 1-.639 2-1.333 2-1.333 1-.667 2-1.417 1-.777 2-1.612 1-.805 2-1.528 1-.722 2-1.528 1-.805 2-1.612 2-1.583 2-1.611 2-1.611 1-.778 2-1.694 2-1.917 2-2 1-1 2-1.972 1-.945 2-1.694 2-1.611 1-.861 2-1.917 2-2 1.917-2 1.694-2 .778-1 1.694-2 .945-1 1.972-2 1-1 2-2 1.972-2 .945-1 1.694-2 .778-1 1.694-2 1.834-2 .861-1 1.611-2 1.694-2 .945-1 1.889-2 .861-1 1.611-2 1.667-2 .888-1 1.667-2 1.611-2 .861-1 1.834-2 .861-1 1.611-2 1.667-2 .888-1 1.667-2 1.611-2 .861-1 1.834-2 1.694-2 .778-1 1.667-2 .888-1 1.667-2 .75-1 .778-1 .722-1 1.528-2 .805-1 1.612-2 .805-1 1.528-2 .722-1 .75-1L699 49l.667-1L701 46l.694-1 1.445-2 .694-1 .723-1 1.25-2 .583-1 1.222-2 .556-1 .583-1 .472-1 1-2 .556-1 .444-1 1-2 .528-1 .861-2 .361-1 .695-2 .639-2 .305-1 .25-1 .5-2 .25-1 .222-2-.25-2-.277-1-.723-1.972-.5-.945-1.333-1.61-1.778-1.195-.972-.445-2-.805-2-.611-2-.334-1-.055L702 1h-3l-2 .028-1 .055-2 .306-1 .222-2 .333-1 .112-2 .333-1 .25-2 .5-1 .25-2 .639-1 .389-1 .472-2 1.139-2 1.305L675 8l-2 1.417-1 .805-1 .861L669 13l-1 1-2 2-.972 1-.945 1-1.694 2-1.583 2-1.612 2-.805 1-1.528 2-.722 1-1.528 2-.805 1-1.612 2-.805 1-1.611 2-.861 1-1.889 2-.945 1-.861 1-1.611 2-.805 1-1.612 2-.805 1-1.611 2-.861 1-1.889 2-.945 1-.861 1-1.611 2-1.667 2-.888 1-1.667 2-.778 1-1.694 2-.945 1-1.944 2-.945 1-1.694 2-.778 1-1.694 2-.945 1-1.889 2-.861 1-1.611 2-1.694 2-.945 1L608 84l-2 2-1 1-1 1-1.917 2-.861.972-1.528 1.806-.694.833-1.417 1.611-.805.861-.861.945L594 99l-2 2-1 1-2 2-1 1-1.972 1.917-.945.861-.861.805-1.611 1.417-.833.694-1.806 1.528-.972.861-1 .945-1 .972-2 2-2 1.972-1 .945-2 1.694-1 .778-2 1.694-2 1.834-1 .861-2 1.611-2 1.667-1 .888-2 1.667-1 .75-1 .778-1 .722-2 1.528-1 .805-2 1.612-1 .805-2 1.528-1 .722-1 .778-2 1.5-1 .722-1 .778-1 .722-1 .778-2 1.472-1 .695-1 .694-2 1.333-1 .667-2 1.389-1 .75-1 .694-1 .723-1 .611-2 1.222-2 1.222-1 .583-2 1.195-2 1.222-1 .556-1 .583-1 .472-2 1-1 .528-2 .861-1 .361-2 .639-1 .25-1 .278-2 .472-2 .306-1 .055-1 .028h-2l-2-.028-1-.055-2-.306-1-.25-2-.528-1-.277-2-.806-1-.528-2-1-1-.444-1-.556-2-1-1-.472-1-.583-1-.556-2-1.222-2-1.195-1-.583-2-1.278-2-1.333-2-1.333-1-.667-2-1.389-2-1.444-1-.723-2-1.277-1-.611-2-1.417-1-.75-2-1.389-1-.667-2-1.333-12-8-4-2.667-2-1.333-2-1.389-1-.75-2-1.472-1-.695-1-.694-2-1.417-2-1.583-1-.806-1-.805-2-1.528-1-.722-1-.778-1-.75-1-.805-2-1.612-1-.805-1-.778-1-.805-2-1.612-1-.805-1-.778-2-1.667-1-.888-2-1.667-2-1.583-2-1.612-1-.805-1-.778-1-.806-2-1.61-1-.806-1-.778-1-.806-2-1.61-1-.806-1-.778-1-.806-2-1.61-1-.806-1-.778-1-.806-2-1.61-1-.806-2-1.528-1-.722-1-.778-1-.75-1-.806-2-1.61-1-.806-2-1.528-1-.722-1-.778-1-.722-2-1.5-1-.778-2-1.5-1-.722-1-.778-1-.722-1-.778-2-1.5-1-.722-1-.778-2-1.472-1-.695-1-.694-1-.667L336 59l-1-.694-1-.695-2-1.472-1-.75L329 54l-1-.667-1-.666-2-1.334-1-.666-2-1.334-1-.666-1-.64-1-.638-1-.584-2-1.194-2-1.222-1-.584-2-1.194-2-1.222-1-.556-1-.583-1-.5-2-1.111-1-.584-1-.527-2-1.056-1-.528-2-1.11-1-.584-1-.472-1-.528-1-.417-1-.444-2-.778-2-.806-1-.416-1-.361-2-.695-1-.333-2-.611-1-.25-2-.5-2-.417-1-.139-2-.083h-2l-2 .028-1 .055-2 .334-2 .694-.972.528-1.722 1.472L260.111 32l-.417 1-.361 1-.639 2-.472 2-.111 1v1l.278 2 .25 1 .5 2 .25 1 .694 2 1 2 .611 1 .639 1 1.361 2 .723 1 1.639 2 .888 1 .834.972 1.611 1.806.833.833.861.778L273 64.083 275 66l1 .972 1 .945 1 .86 2 1.584 1 .778 1 .722 1 .778 1 .722 2 1.5 1 .75 1 .694 1 .695 1 .667 3 2L295 81l2 1.389 1 .75 1 .722 1 .778 1 .75 1 .806 2 1.61 1 .806 2 1.528 1 .722 1 .778 2 1.5 1 .722 1 .778 1 .722 1 .778 1 .722 2 1.5 1 .778 1 .722 1 .778 1 .722 1 .778 1 .722 2 1.5 1 .778 2 1.5 1 .722 1 .778 1 .722 2 1.5 1 .778 1 .722 1 .778 1 .722 1 .778 2 1.5 1 .722 1 .778 2 1.472 1 .695 2 1.388 1 .695 2 1.472 1 .75 1 .695 1 .694 2 1.333 5 3.334 4 2.666 1 .667 10 6.667 3 2 1 .666 2 1.361 1 .695 1 .75 2 1.472 2 1.389 1 .667 2 1.333 3 2 3 2 2 1.333 1 .667 2 1.389 1 .75 2 1.472 1 .695 2 1.388 1 .723 1 .777 2 1.612 1 .777 2 1.417 2 1.389 2 1.472 1 .778 1 .75 1 .805 2 1.612 2 1.583 1 .805 2 1.612 1 .805 1 .778 2 1.694 1 .945 1.972 1.972.945 1 1.583 1.944.972 1.556.528 1.5M58 832l-.583-2.056-.361-1.944-.112-1-.333-2-.222-1-.306-2-.055-1-.028-1-.028-2-.055-1-.306-2-.222-1-.306-2-.055-1-.028-2v-22l.028-1 .055-1 .306-2 .222-1 .306-2 .055-1 .028-2v-16l.083-2 .306-2 .222-1 .306-2 .083-2v-34l.083-2 .14-1 .388-2 .306-2 .055-1 .028-2v-91l-.083-2-.306-2-.222-1-.306-2-.083-2v-59l-.083-2-.306-2-.222-1-.306-2-.083-2v-18l-.028-2-.055-1-.306-2-.222-1-.306-2-.083-2v-41l-.083-2-.14-1-.388-2-.306-2-.055-1-.028-2v-14l-.083-2-.306-2-.222-1-.306-2-.083-2v-38l-.028-2-.055-1-.306-2-.222-1-.306-2-.055-1-.028-2v-16l-.083-2-.306-2-.222-1-.306-2-.083-2v-43l-.083-2-.278-2-.167-1-.028-1 .028-1 .167-1 .25-2v-1l-.278-2-.222-1-.306-2-.055-1-.028-2v-49l.083-2 .417-2 .444-1 1.306-1.972.833-.945L55 243.389l.972-.778 1.722-1.694L59 239.083l1.306-1.583 1.722-.917.972-.111h1l1 .167 2 .278 1 .055 1 .028h2l1 .028 1 .055 2 .306 1 .222 2 .306 1 .055 2 .028h13l2 .083 2 .306 1 .222 2 .306 1 .055 2 .028h3l1 .028 1 .055 2 .306 1 .222 2 .306 1 .055 2 .028h15l2 .028 1 .055 2 .306 1 .222 2 .306 1 .055 2 .028h11l2 .028 1 .055 2 .306 1 .222 2 .306 1 .055 2 .028h27l2 .028 1 .055 2 .306 1 .222 2 .306 1 .055 2 .028h31l2 .083 1 .139 2 .389 2 .306 1 .055 1 .028h199l2-.083 2-.306 1-.222 2-.306 2-.083h62l2-.083 2-.306 1-.222 2-.306 2-.083h92l2-.083 2-.306 1-.222 2-.306 2-.083h115l2-.028 1-.055 2-.306 1-.222 2-.306 1-.055 2-.028h25l2-.028 1-.055 2-.306 1-.222 2-.306 1-.055 1-.028h9l2-.028 1-.055 2-.306 1-.222 2-.306 1-.055 2-.028h33l2-.083 2-.306 1-.222 2-.306 1-.055 2-.028h42l2 .028 1 .055 2 .306 1 .222 2 .306 1 .055 2 .028h8l2 .028 1 .055 2 .306 1 .222 2 .306 1 .055 2 .111 2 .306 1 .222 1 .167 2 .278 1 .166 1 .167 2 .472 1 .278 1 .222 2 .528 2 .722 2 1.028 1.972 1.194.945.639 1.666 1.611 1.389 1.917.611 1 1 2 .389 1 .695 2 .333 1 .611 2 .25 1 .278 1 .222 1 .278 1 .222 1 .5 2 .25 1 .306 2 .111 2 .055 1 .306 2 .222 1 .306 2 .055 1 .111 2 .306 2 .222 1 .306 2 .055 1 .028 1v40l-.028 2-.055 1-.306 2-.222 1-.306 2-.055 1-.028 1v7l-.056 2-.083 1-.111 2v1l-.194 2-.195 1-.278 2-.055 1-.028 2v17l-.028 2-.055 1-.306 2-.222 1-.306 2-.055 1-.028 2v27l.083 2 .306 2 .222 1 .306 2 .083 2v77l.083 2 .223 2 .083 1v1l-.083 1-.195 2v1l.278 2 .222 1 .306 2 .083 2v22l.028 2 .055 1 .306 2 .222 1 .306 2 .083 2v40l.083 2 .306 2 .222 1 .306 2 .083 2v63l.083 2 .306 2 .222 1 .306 2 .055 1 .028 2v27l.028 2 .055 1 .306 2 .222 1 .306 2 .055 1 .028 2v1l-.056 1.972-.111 1.806-.055.833.055.778.111 1.694L954 717v6l.028 2 .055 1 .306 2 .222 1 .306 2 .055 1 .028 2v16l.028 2 .055 1 .306 2 .222 1 .306 2 .083 2v12l-.028 2-.055 1-.306 2-.222 1-.306 2-.055 1-.028 2v6l-.028 2-.055 1-.306 2-.222 1-.306 2-.055 1-.056 2-.055 1-.306 2-.222 1-.389 2-.389 2-.472 2-.278 1-.25 1-.694 2-.473 1-1.083 2-.555.972-1.278 1.806-.778.805-1.778 1.389-1.972 1.195-1 .583-1 .472-1 .528-2 .861-2 .695-2 .555-1 .278-1 .25-1 .305-2 .612-1 .277-1 .223-2 .388-1 .195-1 .222-2 .389-2 .389-1 .222-2 .306-1 .055-2 .056-2 .194-2 .389-2 .306-1 .055-2 .111-1 .139-2 .389-2 .306-1 .055-1 .028h-9l-2 .028-1 .055-2 .306-1 .222-2 .306-1 .055-2 .028h-24l-2 .028-1 .055-2 .278-2 .195-1-.028-1-.167-2-.278-2-.083h-34l-2-.028-1-.055-2-.306-1-.222-2-.306-2-.083h-30l-2-.028-1-.055-2-.306-1-.222-2-.306-2-.083H58m41-564l-.528 1.5-.972 1.556-.722.944-1.472 2-.584 1-.389 1-.305 2-.056 2-.055 1-.306 2-.222 1-.306 2-.083 2v3l-.028 2-.055 1-.306 2-.222 1-.306 2-.055 1-.028 2v11l-.028 2-.055 1-.306 2-.222 1-.222 2 .222 2 .222 1 .306 2 .055 1 .028 2v6l-.028 2-.055 1-.306 2-.389 2-.139 1-.083 2v56l.028 2 .055 1 .306 2 .222 1 .306 2 .055 1 .028 2v9l-.028 2-.055 1-.306 2-.222 1-.306 2-.055 2 .055 1 .306 2 .222 1 .306 2 .055 1 .028 2v22l.083 2 .14 1 .388 2 .306 2 .055 1 .028 2v11l.028 2 .055 1 .306 2 .222 1 .306 2 .055 1 .028 1v1l-.083 2-.14 1-.388 2-.278 2v1l.278 2 .222 1 .306 2 .055 1 .028 2v13l.028 2 .055 1 .306 2 .222 1 .306 2 .055 1 .028 1v11l.028 2 .055 1 .306 2 .222 1 .306 2 .055 1 .028 2-.028 2-.055 1-.306 2-.222 1-.222 2 .222 2 .222 1 .306 2 .083 2v21l.083 2 .306 2 .222 1 .306 2 .055 1 .028 2v22l.083 2 .306 2 .222 1 .306 2 .055 1 .028 2v55l-.028 2-.055 1-.306 2-.222 1-.306 2-.055 1-.028 2v11l-.028 2-.055 1-.306 2-.222 1-.306 2-.055 1-.028 2v14l-.028 2-.055 1-.306 2-.222 1-.278 2v1l.278 2 .222 1 .306 2 .055 1 .028 2v7l-.083 2-.14 1-.388 2-.167 1-.139 1-.083 2v8l.028 2 .055 1 .306 2 .222 1 .306 2 .055 1 .028 1-.028 2-.166 2-.195 2v1l.195 2 .138 1 .306 2 .25.972 1 1.806.75.805 1.778 1.389 1.972 1.195 1 .555 2 .834 2 .583 1 .222 1 .278 1 .222 2 .5 1 .25 1 .195 2 .388 1 .195 1 .222 2 .306 1 .055 1 .028h15l1-.028 1-.055 2-.306 1-.222 2-.306 1-.055 2-.028h3l2-.083 1-.139 1-.167 2-.389 1-.139 2-.083h2l1-.028 1-.055 2-.223 1-.083h2l2-.083 1-.167 2-.278 1-.055 2-.028h3l2-.083 2-.306 1-.222 2-.306 1-.055 2-.028h119l2-.028 1-.055 2-.306 1-.222 2-.306 2-.083h9l2 .028 1 .055 2 .306 1 .222 2 .306 1 .055 2 .028h8l2-.083 2-.306 1-.222 2-.306 2-.083h65l2-.083 2-.306 1-.222 2-.306 2-.083h58l2-.083 2-.306 1-.222 2-.306 2-.083h5l1 .028 1 .055 2 .306 1 .222 2 .306 1 .055 1 .028h5l2-.083 2-.306 1-.222 2-.306 2-.083h71l2-.083 2-.306 1-.222 2-.306 2-.083h131l2 .028 1 .055 2 .306 2 .389 1 .139 2 .083h12l2 .028 1 .055 2 .306 1 .194 1 .111h1l2-.305 2-.222 2 .222 1 .222 2 .306 1 .055 2 .028h9l2 .028 1 .055 2 .306 1 .222 2 .306 1 .055 2 .028h13l2 .083 2 .306 1 .222 2 .306 1 .027 1-.027 2-.306 1-.222 2-.306 2-.083 2 .083 2 .306 1 .222 2 .306 1 .055 2 .028h10l2-.028 1-.055 2-.306 1-.222 2-.306h2l2 .306 1 .222 2 .222 2-.222 1-.222 2-.306 1-.055 2-.028h3l2-.083 2-.306 1-.222 2-.306 2-.139 2-.111 1-.083h1l2-.194 1-.223 2-.472 2-.5 1-.222 1-.278 2-.472 2-.389 1-.222 1-.25 1-.361 2-.778 2-.778 1-.444 1-.417 1-.528 1.972-1 .945-.472 1.694-1.222 1.528-1.611 1.389-1.917 1.055-2 .389-1 .695-2 .333-1 .583-2 .223-1 .388-2 .195-1 .472-2 .278-1 .222-1 .25-1 .306-2 .055-1 .028-2 .028-2 .055-1 .306-2 .222-1 .306-2 .055-1 .028-2v-3l.083-2 .306-2 .222-1 .306-2 .055-1 .028-2v-33l-.083-2-.139-1-.389-2-.306-2-.055-1-.028-2v-20l-.028-2-.055-1-.306-2-.389-2-.139-1-.083-2V402l.028-2 .055-1 .306-2 .222-1 .306-2 .055-1 .028-2v-4l.028-2 .055-1 .306-2 .222-1 .306-2 .055-1 .028-2v-4l.028-2 .055-1 .278-2 .195-2-.028-1-.167-1-.278-2-.027-1 .027-1 .306-2 .222-1 .306-2 .055-1 .028-2v-6l.028-2 .055-1 .306-2 .222-1 .306-2 .055-1 .028-2v-33l-.083-2-.139-1-.167-1-.389-2-.139-1-.083-2v-1l-.083-2-.306-2-.389-2-.139-1-.111-2-.055-1-.139-1-.195-1-.583-2-.306-1-.305-1-.556-2-.277-1-.834-1.917-1.194-1.611-1.611-1.194-.945-.417-.972-.361-2-.222-1 .055-2 .056-1-.083-2-.223-1-.055-1-.028h-18l-2 .028-1 .055-2 .306-1 .222-2 .306-1 .055-2-.055-2-.306-1-.222-2-.306-2-.055-1 .055-2 .306-1 .222-2 .306-1 .055-2 .028h-25l-2 .028-1 .055-2 .306-1 .222-2 .306-2 .083H695l-2-.083-2-.306-1-.222-2-.306-2-.083h-67l-2-.083-2-.306-1-.222-2-.306-2-.083h-2l-2 .083-2 .306-1 .222-2 .306-2 .083-2-.083-2-.306-1-.222-2-.306-2-.083h-33l-2-.083-2-.306-1-.222-2-.306-1-.055-2-.028h-21l-2-.028-1-.055-2-.306-1-.222-2-.306-1-.055-2-.028h-51l-2-.083-2-.306-1-.222-2-.306-1-.055-2-.028h-23l-2-.083-2-.306-1-.222-2-.306-2-.083h-91l-2-.083-2-.306-1-.222-2-.306-1-.055-2-.028h-43l-2 .083-2 .306-1 .222-2 .306-2 .083h-68l-2 .083-1 .139-2 .389-2 .306-1 .055-1 .028h-10l-2 .028-1 .055-2 .306-1 .222-2 .306-1 .055-2 .028h-16l-2 .028-1 .055-2 .306-1 .222-2 .306-1 .055-2 .028h-5l-2 .028-1 .055-2 .306-1 .222-2 .306-1 .055-2 .028h-4l-2 .083-2 .223-1 .083h-1l-1-.083-2-.139-2 .222-1 .222-2 .306-1 .055-2 .028-1 .028-1 .055-2 .306-.944.222-1 .167-.556.139L99 268m41 57l1.972-1.472 1.556-1.611 1.222-1.861.25-.556 1-1.5 1.5-.028 1.556-.194 1.944-.389 2-.278 2 .028 1 .028 1 .055 2-.083 1-.083 2-.056h3l2-.028 1-.055 2-.306 1-.222 2-.306 1-.055 2-.028h2l1-.028 1-.055 2-.306 1-.222 2-.306 1-.055 2-.028h18l2-.028 1-.055 2-.306 1-.222 2-.306 1-.055 2-.028h9l1-.028 1-.055 2-.306 2-.389 1-.139 2-.083h36l2-.083 2-.278 1-.167 1-.028 1 .028 2 .306 1 .139 2 .083h4l2-.083 2-.306 1-.222 2-.306 2-.083h59l2 .028 1 .055 2 .306 1 .222 2 .306 2 .083h73l2 .083 2 .306 1 .222 2 .306 1 .055 2 .028h22l2 .028 1 .055 2 .306 1 .222 2 .306 1 .055 2 .028h51l2 .083 2 .306 1 .222 2 .306 2 .083h23l2 .028 1 .055 2 .306 1 .222 2 .306 2 .083h38l2 .028 1 .055 2 .306 1 .222 2 .306 2 .083h1l2-.028 1-.055 2-.306 1-.222 2-.306 1-.055 2-.028h23l2 .083 2 .306 1 .222 2 .306 1 .055 2 .028h41l2-.028 1-.055 2-.306 1-.222 2-.306 2-.083h31l2-.028 1-.055 2-.306 1-.222 2-.306 1-.055 1-.028h8l2-.028 1-.055 2-.306 1-.222 2-.306 1-.055 2-.028h73l1 .028 1 .055 2 .306 2 .389 1 .139 2 .166 1 .139 1 .167 2 .389 2 .222 2 .222 1 .195 2 .583 2 .611 1 .278 2 .722 1.972 1.111.945.695 1.666 1.666 1.334 1.917 1 2 .389 1 .361 1 .639 2 .305 1 .25 1 .278 1 .472 2 .306 2 .055 1 .111 2 .306 2 .222 1 .306 2 .055 1 .028 1v33l-.028 2-.055 1-.306 2-.222 1-.306 2-.055 1-.028 2v2l-.028 1-.055 1-.278 2-.167 1v2l.278 2 .083 1-.222 2-.222 1-.306 2-.055 1-.028 2v4l-.028 2-.055 1-.306 2-.389 2-.139 1-.083 2v121l.028 2 .055 1 .306 2 .222 1 .306 2 .055 1 .028 2v9l.028 1 .055 1 .306 2 .222 1 .278 2v1l-.278 2-.194 1-.111 2 .305 2 .306 2 .083 2v2l.028 2 .055 1 .306 2 .222 1 .306 2 .055 1 .028 2v5l.028 2 .055 1 .306 2 .222 1 .278 2-.028 2-.028 1-.055 1 .083 2 .083 1 .056 2v10l.083 2 .306 2 .222 1 .306 2 .055 1 .028 2v59l-.028 2-.055 1-.306 2-.222 1-.306 2-.083 2v3l-.028 2-.055 1-.306 2-.389 2-.139 1-.166 2-.139 1-.389 2-.333 2-.112 1-.333 2-.472 2-.278 1-.222 1-.278 1-.222 1-.528 2-.305 1-.306 1-.667 2-.722 2-.861 2-.528 1-.472 1-.583 1-1.195 2-1.389 1.889-.805.805-.861.667-.945.528-1.972.778-1 .333-2 .583-2 .334-1 .055-2 .056-1 .055-2 .306-1 .222-2 .306-1 .055-2 .056-2 .194-2 .389-2 .306-1 .055-2 .028h-13l-2 .083-2 .306-1 .222-2 .306-2 .083h-6l-1-.028-1-.055-2-.306-1-.222-2-.306-1-.055-2-.028h-7l-2 .083-2 .306-1 .222-2 .306-2 .083h-10l-2-.028-1-.055-2-.306-2-.389-1-.139-2-.083h-43l-2-.028-1-.055-2-.306-1-.222-2-.306-1-.055-2-.028h-68l-2 .028-1 .055-2 .306-1 .222-2 .306-1 .055-2 .028h-58l-2 .083-2 .306-1 .222-2 .306-2 .083h-1l-2-.028-1-.055-2-.306-1-.222-2-.306-2-.083-2 .083-2 .306-1 .222-2 .306-2 .083h-36l-2 .083-2 .306-1 .222-2 .306-2 .083h-39l-2 .083-1 .139-2 .389-2 .306-1 .055-2 .028h-3l-2-.083-2-.306-1-.222-2-.306-2-.083-2 .083-2 .306-1 .222-2 .306-2 .083H332l-1 .028-1 .055-2 .306-1 .222-2 .306-1 .055-2 .028h-18l-1 .028-1 .055-2 .306-1 .222-2 .278h-1l-2-.25-1-.167h-2l-1 .167-2 .278-2 .083h-10l-1 .028-1 .055-2 .306-1 .222-2 .306-1 .055-2 .028h-13l-2 .083-2 .306-1 .222-2 .306-1 .027-1-.027-2-.306-1-.222-2-.222-2 .222-1 .222-2 .306-2 .083h-37l-1-.028-2-.166-1-.112-2-.083-2 .167-1 .055-2-.222-1-.222-2-.306-1-.055-1-.028-2-.028-1-.055-2-.306-1-.222-2-.306-2-.111-1-.055-2-.306-2-.472-1-.278-2-.5-1-.222-1-.306-1-.277-2-.834-1-.583-.972-.611-1.778-1.611-.778-.945-.611-.972-1.028-2-.444-1-.695-2-.277-1-.417-2-.389-2-.222-1-.195-1-.388-2-.167-1-.195-.972-.194-1.806v-.833l-.083-.778-.111-1.694-.139-1.917-.306-2-.222-1-.306-2-.055-1-.028-1v-3l-.028-2-.055-1-.306-2-.222-1-.278-2v-1l.25-2 .167-1 .028-1-.028-1-.167-1-.278-2-.083-2v-44l.028-2 .055-1 .306-2 .222-1 .278-2v-1l-.278-2-.222-1-.306-2-.055-2 .055-1 .306-2 .389-2 .139-1 .083-2v-16l.028-2 .055-1 .306-2 .222-1 .306-2 .055-1 .028-1v-8l.028-2 .055-1 .306-2 .222-1 .222-2-.222-2-.222-1-.306-2v-2l.306-2 .222-1 .306-2 .055-1 .028-1v-11l.028-2 .055-1 .306-2 .222-1 .306-2 .055-1 .028-2v-26l-.083-2-.139-1-.389-2-.306-2-.055-1-.028-2v-6l-.028-2-.055-1-.306-2-.222-1-.25-2 .028-2 .055-1-.083-2-.083-1-.056-2v-4l-.028-2-.055-1-.306-2-.222-1-.306-2-.055-1-.028-1v-3l-.028-2-.055-1-.306-2-.333-2-.084-2 .028-1-.083-2-.083-1-.056-2v-3l-.028-1-.055-1-.306-2-.222-1-.306-2-.055-1-.028-2v-2l-.028-1-.055-1-.306-2-.222-1-.306-2-.055-1-.028-2v-6l-.028-2-.055-1-.306-2-.222-1-.306-2-.055-1-.028-2v-2l-.028-1-.055-1-.306-2-.222-1-.306-2-.055-1 .028-1.972.083-.945.028-.861.055-.833-.055-.778-.111-1.694L140 408v-8l-.083-2-.306-2-.222-1-.306-2-.055-1-.028-2v-15l-.083-2-.139-1-.389-2-.306-2-.055-1-.028-2v-7l.083-2 .139-1 .389-2 .306-2 .055-1 .028-1v-11l.028-2 .055-1 .306-2 .222-1 .306-2 .055-1 .028-1.944V325m607 41.389l-1 .222-2 .306-2 .166-2 .334-1 .277-2 .612-1 .305-2 .556-1 .277-1 .389-1 .361-2 .862-2 1-1 .583-2 1.111-1 .5-2 1.222-1 .75-.972.778-1.806 1.583-.805.723-1.417 1.388-.694.723-1.445 1.666-.722.945-.75.972-1.361 2-.639 1-1.111 2-.889 2-.361 1-.695 2-.333 1-.583 2-.361 2-.112 1-.166 1-.167 1-.222 1-.306 2-.083 2v5l.028 2 .055 1 .306 2 .222 1 .167 1 .278 2 .361 2 .277 1 .612 2 .305 1 .25 1 .583 2 .75 2 .445 1 .417 1 .944 2 1 2 1.083 2 .611 1 .639 1 1.334 2 1.333 2 .694 1 .723 1 1.666 2 1.917 2 1 1 2 1.917 2 1.666 1 .723 2 1.361 2 1.305 1 .639 2 1.139 1 .472 2 .945 1 .444 1 .361 2 .639 1 .25 1 .278 2 .472 2 .389 2 .389 1 .222 2 .306 1 .055 1 .028 2-.083 1-.139 2-.389 2-.333 1-.112 2-.333 2-.417 2-.416 1-.25 2-.778 1-.528 1-.444 1-.556 2-1 1-.472 2-1.194 2-1.417 1-.778 1-.75 2-1.694 1.917-1.917 1.694-2 1.528-2 .694-1 .723-1 .611-1 1.222-2 .611-1 1.111-2 .889-2 .389-1 .805-2 .417-1 .361-1 .639-2 .25-1 .5-2 .25-1 .333-2 .112-1 .166-1 .167-1 .222-1 .306-2 .055-1 .028-2v-8l-.028-2-.055-1-.306-2-.222-1-.195-1-.388-2-.195-1-.25-1-.222-1-.528-2-.639-2-.361-1-.861-2-.528-1-.444-1-.556-1-1-2-.472-1-1.222-2-1.528-2-.806-1-1.583-1.917-1.694-1.694-.945-.75-1.972-1.5-1-.75-1-.695-2-1.305-1-.556-1-.555-1-.445-1-.444-2-.778-1-.417-2-.722-1-.25-1-.222-2-.389-1-.222-2-.306-1-.055-2-.028h-10l-2 .083-2 .306m-501 72l-1 .222-2 .306-2 .083h-2l-2 .083-2 .306-1 .25-1 .222-1 .278-2 .472-1 .195-2 .416-1 .25-1 .361-2 .778-2 .778-1 .444-1 .445-1 .555-2 1.167-2 1.194-1 .639-1 .639-2 1.611-1 .945-2 1.972-1.917 2-1.666 2-1.389 2-.639 1-.556 1-.583 1-.472 1-.528 1-.861 2-.361 1-.695 2-.333 1-.583 2-.195 1-.139 1-.083 2v15l.083 2 .139 1 .195 1 .583 2 .306 1 .305 1 .528 2 .25 1 .639 2 .361 1 .861 2 .528 1 .444 1 .556 1 1 2 .472 1 1.139 2 .639 1 1.305 2 1.361 2 .723 1 1.666 2 1.917 2 2 2 2 1.917 2 1.694 2 1.528 1 .694 1 .723 2 1.194 1 .472 1 .556 1 .444 1 .528 2 .806 1 .277 1 .306 1 .222 2 .5 1 .278 1 .222 1 .25 2 .306 1 .055 2 .028h6l2-.028 1-.055 2-.306 1-.25 2-.5 1-.222 1-.278 2-.528 1-.277 2-.806 1-.528 1-.444 1-.556 1-.472 2-1.139 1-.639 2-1.389 2-1.666 2-1.917 1.917-2 1.694-2 .75-1 1.472-2 .723-1 1.194-2 .472-1 .556-1 .444-1 1-2 .528-1 .861-2 .361-1 .695-2 .639-2 .277-1 .361-2 .112-1 .333-2 .222-1 .333-2 .112-1 .333-2 .222-1 .306-2 .055-1 .028-1v-2l-.028-2-.055-1-.306-2-.222-1-.333-2-.112-1-.333-2-.417-2-.416-2-.25-1-.695-2-.389-1-.611-2-.277-1-.834-2-.555-1-.556-1-1.222-2-.583-1-1.278-2-.778-1-1.778-2-1.972-2-1-1-2-1.917-1-.833-1-.778-1-.611-1-.611-1-.472-2-1-1-.528-2-.861-1-.361-2-.695-2-.639-1-.277-2-.334-2-.083-2-.028-1-.055-2-.306-1-.222-2-.222-2 .222m253 149l-1 .222-2 .333-1 .112-2 .361-1 .277-2 .639-2 .695-1 .361-2 .861-1 .528-2 1-1 .472-1 .611-1 .583-1 .723-1 .694-2 1.528-2 1.667-1 .888-1.972 1.667-.945.778-1.694 1.694-.778.945-1.694 1.972-.945 1-1.889 2-1.694 2-.75 1-1.5 2-.778 1-.722 1-.778 1-1.472 2-.695 1-1.388 2-.695 1-.75 1-1.472 2-1.389 2-1.333 2-2 3-.667 1-.694 1-.695 1-.75 1-1.472 2-.695 1-.694 1-1.417 2-1.583 2-.806 1-.805 1-1.528 2-.722 1-.778 1-.722 1-.778 1-1.5 2-.722 1-.778 1-1.5 2-.722 1-.778 1-1.472 2-.695 1-1.361 2-1.333 2-.667 1-1.305 2-.639 1-.556 1-.583 1-.472 1-.556 1-.444 1-1 2-.528 1-.417 1-.444 1-.778 2-.778 2-.361 1-.389 2-.055 1-.111 2-.223 2-.083 1v1l.083 1 .223 2 .166 2 .389 2 .389 1 .917 2 1.083 2 .611 1 1.611 2 .945 1 1.972 1.889 2 1.472 1 .528 1 .417 2 .694 1 .306 1 .277 2 .417 2 .389 2 .472 1 .278 1 .222 1 .25 2 .306 1 .055 1 .028 2 .028 1 .055 2 .306 1 .222 2 .306 1 .055 2 .056 2 .194 2 .389 2 .306 1 .055 2 .028h10l2 .028 1 .055 2 .306 1 .222 2 .306 2 .083h54l2-.028 1-.055 2-.306 1-.222 2-.306 2-.083h13l2-.028 1-.055 2-.306 1-.222 2-.306 1-.055 2-.028 2-.028 1-.055 2-.306 1-.222 2-.306 1-.055 2-.028 2-.028 1-.055 2-.306 1-.222 1-.195 2-.388 1-.195 1-.222 2-.306 2-.166 2-.334 1-.277 2-.639 2-.778 1.972-1.195 1.806-1.722.805-.972 1.306-2 .5-1 .722-2 .25-1 .25-1 .306-2 .055-1 .028-2v-4l-.028-2-.055-1-.306-2-.222-1-.333-2-.112-1-.361-2-.277-1-.639-2-.334-1-.722-2-.417-1-.805-2-.778-2-.861-2-.528-1-.444-1-.556-1-1-2-.444-1-.556-1-.472-1-1.139-2-1.222-2-1.195-2-.583-1-1.222-2-.583-1-.639-1-.611-1-.723-1-.694-1-1.445-2-.694-1-1.333-2-.667-1-1.417-2-.777-1-1.612-2-1.583-2-1.667-2-.888-1-1.667-2-.778-1-1.694-2-.945-1-1.972-2-2-2-1-1-2-2-5-5-2-2-1-.972-1-.945-2-1.694-1-.778-1-.805-2-1.612-2-1.583-1-.805-2-1.612-1-.777-2-1.417-1-.667-2-1.333-1-.667-2-1.305-1-.639-1-.556-1-.583-1-.472-2-1-1-.556-1-.444-1-.556-1-.444-1-.528-2-.861-1-.361-1-.361-1-.334-2-.666-2-.667-1-.306-1-.277-2-.334-2-.111-1-.055-2-.306-1-.222-2-.306-1-.027-1 .027-2 .306m306 286.917l2 .111 1 .194 2 .389 2 .417 2 .611 1 .389 2 1.083 1.972 1.583.945.945 1.611 1.972.611 1 .583 1 .417 1 .389 1 .389 2 .083 2v6l-.083 2-.334 2-.611 2-.361 1-.889 2-1.194 2-.778 1-1.778 2-1.972 1.917-1 .833-1 .75-2 1.083-1 .389-2 .611-2 .334-1 .055-2-.055-2-.334-1-.277-2-.639-2-.75-1-.473-2-1.138-2-1.306-2-1.417-2-1.666-2-1.917-.972-1-.945-1-1.694-2-.778-1-1.667-2-1.694-2-.778-1-1.194-2-.417-1-.389-1-.389-2-.027-1 .277-2 .389-1 1.389-1.917 1.889-1.611 2-1.222 1-.472 1-.528 1-.417 1-.444 2-.778 2-.778 1-.389 1-.277 2-.556 1-.305 1-.306 2-.583 1-.195 1-.139 2-.166 2-.306 2-.305M176 887.25l2-.222 1-.028 2 .111 2 .611 1.972 1.389.945.917.833.972.75 1 1.083 2 .723 2 .555 2 .5 2 .25 1 .306 2 .055 1 .028 2v9l-.028 2-.055 1-.306 2-.222 1-.389 2-.417 2-.277 1-.723 2-1 1.972-1.277 1.806-.723.805-1.666 1.306-1.917.805-2 .25-1-.027-2-.417-2-1-1.972-1.583-1.806-1.917-1.528-2-.666-1-1.139-2-.472-1-.75-2-.334-1-.639-2-.555-2-.278-1-.222-1-.25-1-.306-2-.055-1-.028-2v-6l.028-1 .055-1 .334-2 .277-1 .723-2 1.083-2 1.583-1.972.945-.945 1.972-1.611 1-.611 1-.583 2-.806 1-.222z" fill="#020202"/>
</g></g>
</svg>