<?xml version="1.0" encoding="utf-8"?>
<!-- Svg Vector Icons : http://www.sfont.cn -->
<!DOCTYPE svg PUBLIC "-//W3C//DTD SVG 1.1//EN" "http://www.w3.org/Graphics/SVG/1.1/DTD/svg11.dtd">
<svg version="1.1" xmlns="http://www.w3.org/2000/svg" xmlns:xlink="http://www.w3.org/1999/xlink" x="0px" y="0px" viewBox="0 0 1000 1000" enable-background="new 0 0 1000 1000" xml:space="preserve">
<metadata> Svg Vector Icons : http://www.sfont.cn </metadata>
<g><path d="M460.8,348.1c0-49-29.4-147-102.9-147c-29.4,0-63.7,19.6-63.7,83.3c0,58.8,29.4,142.1,98,142.1C392.2,426.5,460.8,421.6,460.8,348.1L460.8,348.1z M431.4,588.2h-14.7l0,0c-14.7,0-58.8,4.9-88.2,14.7c-34.3,9.8-73.5,34.3-73.5,83.3c0,53.9,49,107.8,147,107.8c73.5,0,117.6-49,117.6-98C519.6,661.7,495.1,637.2,431.4,588.2L431.4,588.2z M892,10H108c-53.9,0-98,44.1-98,98v784c0,53.9,44.1,98,98,98h784c53.9,0,98-44.1,98-98V108C990,54.1,945.9,10,892,10L892,10z M357.9,852.8c-137.2,0-200.9-78.4-200.9-147c0-24.5,4.9-78.4,73.5-117.6c39.2-24.5,88.2-39.2,151.9-44.1c-9.8-9.8-14.7-24.5-14.7-49c0-9.8,0-14.7,4.9-24.5H353c-98,0-156.8-73.5-156.8-147c0-83.3,63.7-176.4,200.9-176.4h205.8l-14.7,14.7l-34.3,34.3l-4.9,4.9h-34.3c19.6,19.6,44.1,53.9,44.1,107.8c0,68.6-34.3,102.9-78.4,132.3c-9.8,4.9-19.6,19.6-19.6,34.3c0,14.7,9.8,24.5,19.6,29.4c4.9,4.9,14.7,9.8,24.5,14.7C544.1,549,598,583.3,598,661.7C598,749.9,534.3,852.8,357.9,852.8L357.9,852.8z M843,500h-98v98h-49v-98h-98v-49h98v-98h49v98h98V500L843,500z"/></g>
</svg>