<?xml version="1.0" encoding="utf-8"?>
<!-- Svg Vector Icons : http://www.sfont.cn -->
<!DOCTYPE svg PUBLIC "-//W3C//DTD SVG 1.1//EN" "http://www.w3.org/Graphics/SVG/1.1/DTD/svg11.dtd">
<svg version="1.1" xmlns="http://www.w3.org/2000/svg" xmlns:xlink="http://www.w3.org/1999/xlink" x="0px" y="0px" viewBox="0 0 1000 1000" enable-background="new 0 0 1000 1000" xml:space="preserve">
<metadata> Svg Vector Icons : http://www.sfont.cn </metadata>
<g><path d="M990,500c0,271.7-220.2,491.9-491.9,491.9c-237,0-434.9-167.7-481.4-390.9L212,683.1c11.7,59,64,104.4,127.7,103.8c70.6-0.7,127.3-58,127.7-128.3c0-0.1,0.2-0.1,0.3-0.2l147.6-110c94.5,1,169.7-75.1,169.7-167.7c0-92.7-75.2-167.8-167.8-167.8c-91.6,0-165.9,73.4-167.7,164.6L341.4,529c-27.4-0.6-52,6.9-73.4,20.9L10,441.4C39,197.4,246.3,8.1,498.1,8.1C769.8,8.1,990,228.3,990,500z M310.5,724.5l-63.3-26.6c15.6,35.1,50.7,59.9,92.2,59.7c55.2-0.5,99.3-45.5,98.8-100.6c-0.5-54.5-45.2-98.7-99.7-98.7c-11.8,0-23.4,2-35.3,6.6l63.2,26.5c36.8,15.5,54.1,57.8,38.6,94.6C389.6,722.7,347.3,739.9,310.5,724.5z M617.3,494.9c-62.8,0-114-51.2-114-114c0-62.9,51.2-114,114-114c62.9,0,114,51.1,114,114C731.3,443.7,680.2,494.9,617.3,494.9z M617.3,466.9c47.5,0,86.1-38.6,86.1-86.1c0-47.5-38.6-86.1-86.1-86.1c-47.5,0-86.1,38.7-86.1,86.1C531.1,428.3,569.8,466.9,617.3,466.9z"/></g>
</svg>