<?xml version="1.0" encoding="utf-8"?>
<!-- Svg Vector Icons : http://www.sfont.cn -->
<!DOCTYPE svg PUBLIC "-//W3C//DTD SVG 1.1//EN" "http://www.w3.org/Graphics/SVG/1.1/DTD/svg11.dtd">
<svg version="1.1" xmlns="http://www.w3.org/2000/svg" xmlns:xlink="http://www.w3.org/1999/xlink" x="0px" y="0px" viewBox="0 0 1000 1000" enable-background="new 0 0 1000 1000" xml:space="preserve">
<metadata> Svg Vector Icons : http://www.sfont.cn </metadata>
<g><g><path d="M300.9,810.1c26,0,51.5-12.6,67-35.8c24.6-36.9,14.6-86.9-22.3-111.5l-63.2-42.2c10.8-2.9,22.2-4.6,34-4.6c71.2,0,128.9,57.7,128.9,128.9s-57.7,128.9-128.9,128.9c-69.3,0-125.8-54.7-128.8-123.2l68.9,45.9C270,805.7,285.5,810.1,300.9,810.1z M826.7,10C916.5,10,990,83.5,990,173.4v653.3c0,89.9-73.5,163.3-163.3,163.3H173.4C83.5,990,10,916.5,10,826.7V632.3l116.1,77.4c-11.2,60.5,6.6,125.2,53.4,172c75.5,75.5,197.9,75.5,273.5,0c46.4-46.4,64.3-110.5,53.7-170.5L745,497.8v0c44.3-6.4,86.9-26.6,121-60.6c83.7-83.7,83.7-219.5,0-303.2c-83.7-83.7-219.5-83.7-303.2,0c-34,34-54.3,76.7-60.6,121l0,0L306.3,551.9c-30.5,1.6-60.7,10.3-87.8,26.2L10,439.1V173.4C10,83.5,83.5,10,173.4,10H826.7z M867.5,285.6c0-84.6-68.6-153.1-153.1-153.1s-153.1,68.6-153.1,153.1s68.6,153.1,153.1,153.1S867.5,370.2,867.5,285.6z M622.5,285.6c0-50.7,41.1-91.9,91.9-91.9s91.9,41.1,91.9,91.9s-41.1,91.9-91.9,91.9S622.5,336.4,622.5,285.6z"/></g><g></g><g></g><g></g><g></g><g></g><g></g><g></g><g></g><g></g><g></g><g></g><g></g><g></g><g></g><g></g></g>
</svg>