<?xml version="1.0" encoding="utf-8"?>
<!-- Svg Vector Icons : http://www.sfont.cn -->
<!DOCTYPE svg PUBLIC "-//W3C//DTD SVG 1.1//EN" "http://www.w3.org/Graphics/SVG/1.1/DTD/svg11.dtd">
<svg version="1.1" xmlns="http://www.w3.org/2000/svg" xmlns:xlink="http://www.w3.org/1999/xlink" x="0px" y="0px" viewBox="0 0 1000 1000" enable-background="new 0 0 1000 1000" xml:space="preserve">
<metadata> Svg Vector Icons : http://www.sfont.cn </metadata>
<g><g><path d="M826.7,10H173.4C83.5,10,10,83.5,10,173.4v653.3C10,916.6,83.5,990,173.4,990h653.3c89.8,0,163.3-73.5,163.3-163.4V173.4C990,83.5,916.5,10,826.7,10z M812,337.1c0.3,7,0.5,14.1,0.5,21.2c0,216.5-161.9,466.1-458.1,466.1c-90.9,0-175.6-27.1-246.8-73.6c12.6,1.5,25.4,2.3,38.4,2.3c75.4,0,144.9-26.2,200-70.1c-70.5-1.3-129.9-48.7-150.4-113.8c9.8,1.9,19.9,2.9,30.3,2.9c14.7,0,28.9-2,42.4-5.7c-73.7-15.1-129.2-81.3-129.2-160.6c0-0.7,0-1.4,0-2.1c21.7,12.3,46.5,19.6,72.9,20.5c-43.2-29.4-71.6-79.5-71.6-136.4c0-30,7.9-58.2,21.8-82.4c79.4,99.1,198,164.3,331.9,171.2c-2.7-12-4.2-24.5-4.2-37.3c0-90.5,72.1-163.8,161-163.8c46.3,0,88.2,19.9,117.5,51.7c36.7-7.3,71.1-21,102.2-39.8c-12,38.3-37.6,70.4-70.8,90.6c32.6-4,63.6-12.8,92.5-25.8C870.8,285.2,843.5,314,812,337.1z"/></g><g></g><g></g><g></g><g></g><g></g><g></g><g></g><g></g><g></g><g></g><g></g><g></g><g></g><g></g><g></g></g>
</svg>