<?xml version="1.0" encoding="utf-8"?>
<!-- Svg Vector Icons : http://www.sfont.cn -->
<!DOCTYPE svg PUBLIC "-//W3C//DTD SVG 1.1//EN" "http://www.w3.org/Graphics/SVG/1.1/DTD/svg11.dtd">
<svg version="1.1" xmlns="http://www.w3.org/2000/svg" xmlns:xlink="http://www.w3.org/1999/xlink" x="0px" y="0px" viewBox="0 0 1000 1000" enable-background="new 0 0 1000 1000" xml:space="preserve">
<metadata> Svg Vector Icons : http://www.sfont.cn </metadata>
<g><g><g><path d="M500,10C229.4,10,10,229.4,10,500s219.4,490,490,490s490-219.4,490-490C990,229.3,770.6,10,500,10z M743.8,390l0.4,15.6c0,159.5-121.3,343.2-343.2,343.2c-68.1,0-131.5-20-184.9-54.2c9.4,1.1,19,1.7,28.8,1.7c56.5,0,108.5-19.3,149.8-51.6c-52.8-1-97.3-35.9-112.7-83.8c7.4,1.4,14.9,2.1,22.7,2.1c11,0,21.7-1.4,31.8-4.2c-55.2-11.1-96.8-59.8-96.8-118.3v-1.5c16.3,9.1,34.9,14.5,54.6,15.1c-32.3-21.6-53.7-58.6-53.7-100.4c0-22.1,5.9-42.8,16.3-60.6c59.5,73,148.4,121,248.7,126.1c-2.1-8.8-3.1-18.1-3.1-27.5c0-66.6,54-120.6,120.7-120.6c34.7,0,66,14.6,88.1,38.1c27.4-5.5,53.3-15.5,76.6-29.3c-9,28.2-28.1,51.8-53,66.8c24.3-2.9,47.7-9.4,69.3-19C787.9,351.8,767.4,373.1,743.8,390z"/></g><g></g><g></g><g></g><g></g><g></g><g></g><g></g><g></g><g></g><g></g><g></g><g></g><g></g><g></g><g></g></g><g></g><g></g><g></g><g></g><g></g><g></g><g></g><g></g><g></g><g></g><g></g><g></g><g></g><g></g><g></g></g>
</svg>