<?xml version="1.0" encoding="utf-8"?>
<!-- Svg Vector Icons : http://www.sfont.cn -->
<!DOCTYPE svg PUBLIC "-//W3C//DTD SVG 1.1//EN" "http://www.w3.org/Graphics/SVG/1.1/DTD/svg11.dtd">
<svg version="1.1" xmlns="http://www.w3.org/2000/svg" xmlns:xlink="http://www.w3.org/1999/xlink" x="0px" y="0px" viewBox="0 0 1000 1000" enable-background="new 0 0 1000 1000" xml:space="preserve">
<metadata> Svg Vector Icons : http://www.sfont.cn </metadata>
<g><path d="M990,990c-326.7,0-653.3,0-980,0c0-326.7,0-653.3,0-980c326.7,0,653.3,0,980,0C990,336.7,990,663.3,990,990z M31.5,940.5c99.9,44.8,217.5-68.1,266-261.3c57.9,69.1,112.9,134.4,168,200.7c6.5-2.8,12.1-5.6,18.7-7.5c-8.4-36.4-9.3-78.4-28.9-108.3c-28-44.8-69.1-81.2-103.6-120.4c-16.8,8.4-29.9,14.9-45.7,23.3c6.5-44.8,12.1-83.1,17.7-126c66.3,0,131.6,0,197.9,0c-1.9-68.1-7.5-74.7-66.3-74.7c-42,0-83.1,0-120.4,0c0-83.1,0-160.5,0-242.7c60.7,0,114.8,0,168,0c-1.9-65.3-10.3-74.7-68.1-74.7c-81.2,0-163.3,0-250.1,0c14-46.7,26.1-86.8,40.1-130.7c-50.4,10.3-80.3,36.4-96.1,82.1c-27.1,77.5-56.9,154-84.9,230.5c51.3-11.2,91.5-34.5,109.2-86.8c2.8-8.4,16.8-18.7,26.1-19.6c27.1-2.8,55.1-0.9,81.2-0.9c0,84,0,162.4,0,242.7c-43.9,0-84,0-125.1,0c-66.3,0-71.9,3.7-94.3,75.6c71.9,0,141.9,0,212.8,0C232.1,709.1,156.5,838.8,31.5,940.5z M967.6,852.8c0-242.7,0-476,0-709.3c-130.7,0-257.6,0-386.4,0c0,236.1,0,470.4,0,709.3c71.9-21.5,82.1,30.8,97.1,91.5C757.6,844.4,859.3,839.7,967.6,852.8z"/><path d="M31.5,940.5C156.5,837.9,232.1,709.1,251.7,542c-70.9,0-140.9,0-212.8,0c23.3-71.9,28-75.6,94.3-75.6c40.1,0,80.3,0,125.1,0c0-80.3,0-157.7,0-242.7c-26.1,0-54.1-1.9-81.2,0.9c-9.3,0.9-23.3,10.3-26.1,19.6c-17.7,52.3-57.9,75.6-109.2,86.8c28-76.5,57.9-153.1,84.9-230.5c15.9-45.7,46.7-70.9,96.1-82.1c-14,43.9-26.1,84-40.1,130.7c86.8,0,168.9,0,250.1,0c58.8,0,67.2,9.3,68.1,74.7c-54.1,0-107.3,0-168,0c0,82.1,0,159.6,0,242.7c37.3,0,78.4,0,120.4,0c58.8,0,65.3,6.5,66.3,74.7c-66.3,0-132.5,0-197.9,0c-6.5,42.9-12.1,81.2-17.7,126c16.8-8.4,28.9-14.9,45.7-23.3c34.5,39.2,75.6,75.6,103.6,120.4C472,794,472.9,836,482.3,872.4c-6.5,2.8-12.1,5.6-18.7,7.5c-55.1-65.3-110.1-131.6-168-200.7C248.9,872.4,132.3,986.3,31.5,940.5z"/><path d="M967.6,852.8c-108.3-13.1-210-8.4-288.4,91.5c-15.9-60.7-25.2-112.9-97.1-92.4c0-238.9,0-473.2,0-709.3c128.8,0,255.7,0,386.4,0C967.6,376.8,967.6,610.1,967.6,852.8z M893.9,218.1c-81.2,0-158.7,0-239.9,0c0,163.3,4.7,322.9-1.9,482.5c-2.8,60.7,36.4,93.3,53.2,143.7c59.7-42,112.9-85.9,189.5-68.1C893.9,588.7,893.9,405.7,893.9,218.1z"/><path d="M893.9,218.1c0,187.6,0,369.6,0,558.1c-76.5-17.7-129.7,26.1-189.5,68.1c-16.8-50.4-56-84-53.2-143.7c7.5-159.6,2.8-319.2,2.8-482.5C735.2,218.1,813.6,218.1,893.9,218.1z"/></g>
</svg>