<?xml version="1.0" encoding="utf-8"?>
<!-- Svg Vector Icons : http://www.sfont.cn -->
<!DOCTYPE svg PUBLIC "-//W3C//DTD SVG 1.1//EN" "http://www.w3.org/Graphics/SVG/1.1/DTD/svg11.dtd">
<svg version="1.1" xmlns="http://www.w3.org/2000/svg" xmlns:xlink="http://www.w3.org/1999/xlink" x="0px" y="0px" viewBox="0 0 1000 1000" enable-background="new 0 0 1000 1000" xml:space="preserve">
<metadata> Svg Vector Icons : http://www.sfont.cn </metadata>
<g><path d="M500,990c270.6,0,490-219.4,490-490S770.6,10,500,10S10,229.4,10,500S229.4,990,500,990z M331.3,219.2c0,0-41.6,2.4-56.3,28.1c-14.7,25.7-62.4,157.8-62.4,157.8s15.9,7.3,42.8-12.2c26.9-19.6,35.5-53.8,35.5-53.8l48.9-2.4L341,476c0,0-84.4-1.2-101.5,0c-17.1,1.2-26.9,46.5-26.9,46.5H341c0,0-11,77-44,133.3c-33,56.3-95.4,100.3-95.4,100.3s45.2,18.3,89.3-7.3c44-25.7,76.5-138.6,76.5-138.6l103.3,126.4c0,0,9.4-60.2-1.7-77.2c-11.1-17-71.4-85.3-71.4-85.3l-26.4,23.2l18.8-74.8h112.5c0,0,0-44-22-46.5c-22-2.4-90.5,0-90.5,0v-137h101.5c0,0-1.2-45.2-20.8-45.2c-19.6,0-165.1,0-165.1,0L331.3,219.2z M526.5,289.5h231.4v411.8H655.6L582.9,753l-15-51.7h-41.3V289.5z M575.5,335.3h135.4v319.2h-48.1l-61.3,46.2l-13.4-46.2h-12.6V335.3z"/></g>
</svg>